# xmcd
#
# Track frame offsets: 
#        150
#        14688
#        28215
#        41947
#        51836
#        64286
#        77391
#        89329
#        100452
#        110903
#        123552
#        133801
#        146729
#        161785
#        177245
#        193757
#        207453
#        221775
#        237477
#        250814
#        267218
#        279149
#        291429
#        306445
#        322981
#        335747
#
# Disc length: 4633 seconds
#
# Revision: 0
# Processed by: cddbd v1.5.2PL0 Copyright (c) Steve Scherf et al.
# Submitted via: ExactAudioCopyFreeDBPlugin 1.0
#
DISCID=aa12171a
DTITLE=John Lee Hooker - Boogie Chillen CD2 (Compilation Blues Charact
DTITLE=ers)
DYEAR=1900
DGENRE=Blues
TTITLE0=Baby, you ain't no good
TTITLE1=The Syndicator
TTITLE2=Time is marching on
TTITLE3=Dimples
TTITLE4=Trouble blues
TTITLE5=I'm so excited
TTITLE6=Little wheel
TTITLE7=You've taken my woman
TTITLE8=Maudie
TTITLE9=Hobo blues
TTITLE10=How long blues
TTITLE11=Wobblin' baby
TTITLE12=Burning hel
TTITLE13=Smokestack lightnin'
TTITLE14=Blues for my baby
TTITLE15=Natchez fire
TTITLE16=Come on and see about me
TTITLE17=Democrat man
TTITLE18=You're looking good tonight
TTITLE19=Five long years
TTITLE20=I'm mad again
TTITLE21=Don't turn me from your door
TTITLE22=My cryin' days are over
TTITLE23=When my first wife quit me
TTITLE24=Drug store
TTITLE25=Boom boom
EXTD=
EXTT0=
EXTT1=
EXTT2=
EXTT3=
EXTT4=
EXTT5=
EXTT6=
EXTT7=
EXTT8=
EXTT9=
EXTT10=
EXTT11=
EXTT12=
EXTT13=
EXTT14=
EXTT15=
EXTT16=
EXTT17=
EXTT18=
EXTT19=
EXTT20=
EXTT21=
EXTT22=
EXTT23=
EXTT24=
EXTT25=
PLAYORDER=
